# xmcd
#
# Track frame offsets:
# 150
# 11089
# 27159
# 46772
# 63380
# 77434
# 94244
# 113463
# 127501
# 140144
# 152472
# 166205
# 178849
# 197895
# 210682
# 236805
#
# Disc length: 4440 seconds
#
# Revision: 1
# Processed by: cddbd v1.5.1PL0 Copyright (c) Steve Scherf et al.
# Submitted via: CedeCatalogueitor 2.6.0.6 http://personales.ya.com/cdcatalogueitor
#
DISCID=ca115610
DTITLE=LOS CHUNGUITOS - "Grandes Éxitos"
DYEAR=2005
DGENRE=
TTITLE0=Me Sabe A Humo
TTITLE1=Dame Veneno
TTITLE2=En La Chabola
TTITLE3=Soy Un Perro Callejero
TTITLE4=La Playa
TTITLE5=Me Quedo Contigo
TTITLE6=Pa Tí Pa Tu Primo
TTITLE7=Ven Gitana Mía
TTITLE8=Paloma Que Pierde El Vuelo
TTITLE9=Por La Calle Abajo
TTITLE10=Yo No Te Puedo Dar Riqueza
TTITLE11=Vagando Por Ahí
TTITLE12=Puños De Acero
TTITLE13=Carmen
TTITLE14=Baila Con Los Chunguitos
TTITLE15=--DATOS----
EXTD=
EXTT0=
EXTT1=
EXTT2=
EXTT3=
EXTT4=
EXTT5=
EXTT6=
EXTT7=
EXTT8=
EXTT9=
EXTT10=
EXTT11=
EXTT12=
EXTT13=
EXTT14=
EXTT15=
PLAYORDER=
